<svg width="512" height="324" viewBox="0 0 512 324" fill="none" xmlns="http://www.w3.org/2000/svg">
<rect width="512" height="324" fill="#FFFBFB" fill-opacity="0.8"/>
<rect x="219" y="136" width="78" height="48" rx="9" stroke="#D6D1D1" stroke-width="2"/>
<path d="M230.921 162.032C231.722 161.002 233.278 161.002 234.079 162.032L245.147 176.273C246.168 177.587 245.232 179.5 243.568 179.5H221.432C219.768 179.5 218.832 177.587 219.853 176.273L230.921 162.032Z" fill="#D6D1D1"/>
<path d="M233.921 166.032C234.722 165.002 236.278 165.002 237.079 166.032L248.147 180.273C249.168 181.587 248.232 183.5 246.568 183.5H224.432C222.768 183.5 221.832 181.587 222.853 180.273L233.921 166.032Z" fill="#D6D1D1"/>
<path d="M225.457 172.871C226.257 171.901 227.743 171.901 228.543 172.871L232.961 178.227C234.037 179.532 233.109 181.5 231.418 181.5H222.582C220.891 181.5 219.963 179.532 221.039 178.227L225.457 172.871Z" fill="#D6D1D1"/>
<path d="M243 174L251.66 184.5H234.34L243 174Z" fill="#D6D1D1"/>
<path d="M251.921 162.032C252.722 161.002 254.278 161.002 255.079 162.032L266.147 176.273C267.168 177.587 266.232 179.5 264.568 179.5H242.432C240.768 179.5 239.832 177.587 240.853 176.273L251.921 162.032Z" fill="#D6D1D1"/>
<path d="M254.921 166.032C255.722 165.002 257.278 165.002 258.079 166.032L269.147 180.273C270.168 181.587 269.232 183.5 267.568 183.5H245.432C243.768 183.5 242.832 181.587 243.853 180.273L254.921 166.032Z" fill="#D6D1D1"/>
<path d="M246.457 172.871C247.257 171.901 248.743 171.901 249.543 172.871L253.961 178.227C255.037 179.532 254.109 181.5 252.418 181.5H243.582C241.891 181.5 240.963 179.532 242.039 178.227L246.457 172.871Z" fill="#D6D1D1"/>
<path d="M264 174L272.66 184.5H255.34L264 174Z" fill="#D6D1D1"/>
<rect x="241.71" y="171.88" width="2.66814" height="15" rx="1.33407" transform="rotate(-36.4153 241.71 171.88)" fill="#D9D9D9"/>
<circle cx="283.5" cy="148.5" r="4.5" fill="#D6D1D1"/>
</svg>
