<svg width="26" height="17" viewBox="0 0 26 17" fill="none" xmlns="http://www.w3.org/2000/svg">
<path d="M5.87871 5.6502V10.5502M19.8787 5.6502V10.5502M3.77871 15.4502H21.9787C23.1385 15.4502 24.0787 14.51 24.0787 13.3502V3.5502C24.0787 2.3904 23.1385 1.4502 21.9787 1.4502H3.77871C2.61891 1.4502 1.67871 2.3904 1.67871 3.55019V13.3502C1.67871 14.51 2.61891 15.4502 3.77871 15.4502ZM15.6787 8.4502C15.6787 9.99659 14.4251 11.2502 12.8787 11.2502C11.3323 11.2502 10.0787 9.99659 10.0787 8.4502C10.0787 6.9038 11.3323 5.6502 12.8787 5.6502C14.4251 5.6502 15.6787 6.9038 15.6787 8.4502Z" stroke="#C9CACB" stroke-width="2" stroke-linecap="round" stroke-linejoin="round"/>
</svg>
