<svg width="17" height="17" viewBox="0 0 17 17" fill="none" xmlns="http://www.w3.org/2000/svg">
<g clip-path="url(#clip0_103_72)">
<path d="M6.02091 10.3888C6.02091 11.3017 6.76089 12.0416 7.67369 12.0416H9.20841C10.1864 12.0416 10.9792 11.2488 10.9792 10.2708C10.9792 9.29279 10.1864 8.49996 9.20841 8.49996H7.79175C6.81374 8.49996 6.02091 7.70713 6.02091 6.72913C6.02091 5.75112 6.81374 4.95829 7.79175 4.95829H9.32647C10.2393 4.95829 10.9792 5.69827 10.9792 6.61107M8.50008 3.89579V4.95829M8.50008 12.0416V13.1041M15.5834 8.49996C15.5834 12.412 12.4121 15.5833 8.50008 15.5833C4.58806 15.5833 1.41675 12.412 1.41675 8.49996C1.41675 4.58794 4.58806 1.41663 8.50008 1.41663C12.4121 1.41663 15.5834 4.58794 15.5834 8.49996Z" stroke="#102048" stroke-width="1.5" stroke-linecap="round" stroke-linejoin="round"/>
</g>
<defs>
<clipPath id="clip0_103_72">
<rect width="17" height="17" fill="white"/>
</clipPath>
</defs>
</svg>
