<svg width="20" height="21" viewBox="0 0 20 21" fill="none" xmlns="http://www.w3.org/2000/svg">
<path d="M8.74961 7.65177C8.89644 7.23437 9.18625 6.88241 9.56772 6.65821C9.94918 6.43402 10.3977 6.35207 10.8338 6.42687C11.2699 6.50168 11.6654 6.72841 11.9504 7.06691C12.2353 7.40541 12.3913 7.83383 12.3906 8.2763C12.3906 9.52537 10.517 10.1499 10.517 10.1499M10.5412 12.6499H10.5495M10.4163 16.8166C14.3283 16.8166 17.4996 13.6453 17.4996 9.73324C17.4996 5.82122 14.3283 2.6499 10.4163 2.6499C6.50426 2.6499 3.33294 5.82122 3.33294 9.73324C3.33294 10.5249 3.46281 11.2862 3.70241 11.9971C3.79258 12.2646 3.83766 12.3983 3.8458 12.5011C3.85383 12.6026 3.84776 12.6737 3.82265 12.7724C3.79723 12.8723 3.7411 12.9761 3.62885 13.1839L2.2658 15.7069C2.07138 16.0667 1.97416 16.2467 1.99592 16.3855C2.01487 16.5065 2.08606 16.613 2.19058 16.6768C2.31059 16.75 2.51402 16.7289 2.92089 16.6869L7.18841 16.2457C7.31764 16.2324 7.38226 16.2257 7.44116 16.228C7.49908 16.2302 7.53998 16.2356 7.59647 16.2486C7.6539 16.2619 7.72612 16.2897 7.87057 16.3453C8.66061 16.6497 9.51896 16.8166 10.4163 16.8166Z" stroke="black" stroke-width="1.5" stroke-linecap="round" stroke-linejoin="round"/>
</svg>
