<svg width="19" height="20" viewBox="0 0 19 20" fill="none" xmlns="http://www.w3.org/2000/svg">
<path d="M15.0417 3.01367C15.9161 3.01367 16.625 3.71284 16.625 4.57531L16.625 7.24111C16.625 8.10358 15.9161 8.80275 15.0417 8.80275H12.6667C11.7922 8.80275 11.0833 8.10358 11.0833 7.24111L11.0833 4.57531C11.0833 3.71284 11.7922 3.01367 12.6667 3.01367L15.0417 3.01367Z" stroke="white" stroke-width="1.5" stroke-linecap="round" stroke-linejoin="round"/>
<path d="M3.95833 3.01367C3.08388 3.01367 2.375 3.71284 2.375 4.57531L2.37501 7.24111C2.37501 8.10358 3.08389 8.80275 3.95834 8.80275H6.33334C7.20779 8.80275 7.91667 8.10358 7.91667 7.24111L7.91666 4.57531C7.91666 3.71284 7.20778 3.01367 6.33333 3.01367L3.95833 3.01367Z" stroke="white" stroke-width="1.5" stroke-linecap="round" stroke-linejoin="round"/>
<path d="M15.0417 11.4746C15.9161 11.4746 16.625 12.1738 16.625 13.0363V15.702C16.625 16.5645 15.9161 17.2637 15.0417 17.2637H12.6667C11.7922 17.2637 11.0833 16.5645 11.0833 15.702L11.0833 13.0363C11.0833 12.1738 11.7922 11.4746 12.6667 11.4746H15.0417Z" stroke="white" stroke-width="1.5" stroke-linecap="round" stroke-linejoin="round"/>
<path d="M3.95834 11.4746C3.08389 11.4746 2.37501 12.1738 2.37501 13.0363L2.37501 15.702C2.37501 16.5645 3.08389 17.2637 3.95834 17.2637H6.33334C7.20779 17.2637 7.91667 16.5645 7.91667 15.702L7.91667 13.0363C7.91667 12.1738 7.20779 11.4746 6.33334 11.4746H3.95834Z" stroke="white" stroke-width="1.5" stroke-linecap="round" stroke-linejoin="round"/>
</svg>
