<svg width="21" height="22" viewBox="0 0 21 22" fill="none" xmlns="http://www.w3.org/2000/svg">
<path d="M9.75 5.4387C9.75 5.85292 10.0858 6.1887 10.5 6.1887C10.9142 6.1887 11.25 5.85292 11.25 5.4387H9.75ZM11.25 1.6387C11.25 1.22449 10.9142 0.888702 10.5 0.888702C10.0858 0.888702 9.75 1.22449 9.75 1.6387H11.25ZM9.75 20.6387C9.75 21.0529 10.0858 21.3887 10.5 21.3887C10.9142 21.3887 11.25 21.0529 11.25 20.6387H9.75ZM11.25 16.8387C11.25 16.4245 10.9142 16.0887 10.5 16.0887C10.0858 16.0887 9.75 16.4245 9.75 16.8387H11.25ZM16.2 10.3887C15.7858 10.3887 15.45 10.7245 15.45 11.1387C15.45 11.5529 15.7858 11.8887 16.2 11.8887V10.3887ZM20 11.8887C20.4142 11.8887 20.75 11.5529 20.75 11.1387C20.75 10.7245 20.4142 10.3887 20 10.3887V11.8887ZM1 10.3887C0.585786 10.3887 0.25 10.7245 0.25 11.1387C0.25 11.5529 0.585786 11.8887 1 11.8887V10.3887ZM4.8 11.8887C5.21421 11.8887 5.55 11.5529 5.55 11.1387C5.55 10.7245 5.21421 10.3887 4.8 10.3887V11.8887ZM17.35 11.1386C17.35 14.9218 14.2831 17.9886 10.5 17.9886V19.4886C15.1116 19.4886 18.85 15.7502 18.85 11.1386H17.35ZM10.5 17.9886C6.71685 17.9886 3.65 14.9218 3.65 11.1386H2.15C2.15 15.7502 5.88842 19.4886 10.5 19.4886V17.9886ZM3.65 11.1386C3.65 7.3555 6.71685 4.28865 10.5 4.28865V2.78865C5.88842 2.78865 2.15 6.52707 2.15 11.1386H3.65ZM10.5 4.28865C14.2831 4.28865 17.35 7.3555 17.35 11.1386H18.85C18.85 6.52707 15.1116 2.78865 10.5 2.78865V4.28865ZM11.25 5.4387V1.6387H9.75V5.4387H11.25ZM11.25 20.6387V16.8387H9.75V20.6387H11.25ZM16.2 11.8887H20V10.3887H16.2V11.8887ZM1 11.8887H4.8V10.3887H1V11.8887ZM12.6 11.1387C12.6 12.2985 11.6598 13.2387 10.5 13.2387V14.7387C12.4882 14.7387 14.1 13.1269 14.1 11.1387H12.6ZM10.5 13.2387C9.3402 13.2387 8.4 12.2985 8.4 11.1387H6.9C6.9 13.1269 8.51178 14.7387 10.5 14.7387V13.2387ZM8.4 11.1387C8.4 9.9789 9.3402 9.0387 10.5 9.0387V7.5387C8.51178 7.5387 6.9 9.15048 6.9 11.1387H8.4ZM10.5 9.0387C11.6598 9.0387 12.6 9.9789 12.6 11.1387H14.1C14.1 9.15048 12.4882 7.5387 10.5 7.5387V9.0387Z" fill="white"/>
</svg>
