<svg width="19" height="15" viewBox="0 0 19 15" fill="none" xmlns="http://www.w3.org/2000/svg">
<path d="M0.906754 10.4367C0.84455 10.9855 1.23899 11.4808 1.78776 11.543C2.33653 11.6052 2.83182 11.2108 2.89403 10.662L0.906754 10.4367ZM2.78706 2.72701L2.14436 1.96089C1.94793 2.12568 1.8223 2.35962 1.79342 2.61438L2.78706 2.72701ZM5.20309 2.00547C5.62621 1.65051 5.68146 1.01976 5.32651 0.596649C4.97155 0.173534 4.3408 0.118278 3.91769 0.473232L5.20309 2.00547ZM16.1068 10.662C16.169 11.2108 16.6642 11.6052 17.213 11.543C17.7618 11.4808 18.1562 10.9855 18.094 10.4367L16.1068 10.662ZM16.2137 2.72701L17.2074 2.61438C17.1785 2.35962 17.0529 2.12568 16.8564 1.96089L16.2137 2.72701ZM15.0831 0.473232C14.66 0.118278 14.0292 0.173534 13.6743 0.596649C13.3193 1.01976 13.3746 1.65051 13.7977 2.00547L15.0831 0.473232ZM6.22039 10.7394C6.22039 11.6561 5.47718 12.3994 4.56039 12.3994V14.3994C6.58175 14.3994 8.22039 12.7607 8.22039 10.7394H6.22039ZM4.56039 12.3994C3.6436 12.3994 2.90039 11.6561 2.90039 10.7394H0.900391C0.900391 12.7607 2.53903 14.3994 4.56039 14.3994V12.3994ZM2.90039 10.7394C2.90039 9.82256 3.6436 9.07935 4.56039 9.07935V7.07935C2.53903 7.07935 0.900391 8.71799 0.900391 10.7394H2.90039ZM4.56039 9.07935C5.47718 9.07935 6.22039 9.82256 6.22039 10.7394H8.22039C8.22039 8.71799 6.58175 7.07935 4.56039 7.07935V9.07935ZM8.06187 10.6701C8.35041 10.1713 8.88723 9.83935 9.50041 9.83935V7.83935C8.14443 7.83935 6.96198 8.57726 6.33066 9.66862L8.06187 10.6701ZM9.50041 9.83935C10.1136 9.83935 10.6504 10.1713 10.9389 10.6701L12.6702 9.66862C12.0388 8.57726 10.8564 7.83935 9.50041 7.83935V9.83935ZM16.1004 10.7394C16.1004 11.6561 15.3572 12.3994 14.4404 12.3994V14.3994C16.4618 14.3994 18.1004 12.7607 18.1004 10.7394H16.1004ZM14.4404 12.3994C13.5236 12.3994 12.7804 11.6561 12.7804 10.7394H10.7804C10.7804 12.7607 12.419 14.3994 14.4404 14.3994V12.3994ZM12.7804 10.7394C12.7804 9.82256 13.5236 9.07935 14.4404 9.07935V7.07935C12.419 7.07935 10.7804 8.71799 10.7804 10.7394H12.7804ZM14.4404 9.07935C15.3572 9.07935 16.1004 9.82256 16.1004 10.7394H18.1004C18.1004 8.71799 16.4618 7.07935 14.4404 7.07935V9.07935ZM2.89403 10.662L3.78069 2.83964L1.79342 2.61438L0.906754 10.4367L2.89403 10.662ZM3.42976 3.49313L5.20309 2.00547L3.91769 0.473232L2.14436 1.96089L3.42976 3.49313ZM18.094 10.4367L17.2074 2.61438L15.2201 2.83964L16.1068 10.662L18.094 10.4367ZM16.8564 1.96089L15.0831 0.473232L13.7977 2.00547L15.571 3.49313L16.8564 1.96089Z" fill="white"/>
</svg>
