<svg width="17" height="17" viewBox="0 0 17 17" fill="none" xmlns="http://www.w3.org/2000/svg">
<g clip-path="url(#clip0_367_2042)">
<path d="M8.50002 1.4165C10.2718 3.35617 11.2786 5.87336 11.3334 8.49984C11.2786 11.1263 10.2718 13.6435 8.50002 15.5832M8.50002 1.4165C6.72828 3.35617 5.7214 5.87336 5.66669 8.49984C5.7214 11.1263 6.72828 13.6435 8.50002 15.5832M8.50002 1.4165C4.588 1.4165 1.41669 4.58782 1.41669 8.49984C1.41669 12.4119 4.588 15.5832 8.50002 15.5832M8.50002 1.4165C12.412 1.4165 15.5834 4.58782 15.5834 8.49984C15.5834 12.4119 12.412 15.5832 8.50002 15.5832M1.77087 6.37484H15.2292M1.77085 10.6248H15.2292" stroke="#102048" stroke-linecap="round" stroke-linejoin="round"/>
</g>
<defs>
<clipPath id="clip0_367_2042">
<rect width="17" height="17" fill="white"/>
</clipPath>
</defs>
</svg>
