<svg width="42" height="51" viewBox="0 0 42 51" fill="none" xmlns="http://www.w3.org/2000/svg">
<path d="M3.40637 2.57374C3.40637 2.57374 29.3294 0.697712 29.3294 22.6519C29.3294 44.6061 22.4772 49.0093 16.4706 50.3969C16.4706 50.3969 41.4532 56.2963 41.4532 25.4272C41.4532 -5.44201 9.59471 -1.00001 3.40637 2.57374Z" fill="#F1634C"/>
<path d="M24.5004 39.9005C24.5004 39.9005 22.003 48.4279 14.4395 49.5054C6.87593 50.583 5.46913 46.5596 0.213393 46.8387C0.0922846 45.7335 0.429413 44.6269 1.14889 43.7681C1.86838 42.9093 2.90975 42.3703 4.03862 42.2726C8.29854 41.7067 16.2809 42.8075 21.5841 39.5206C21.5841 39.5206 24.7454 37.9082 25.3382 37.1252L24.5004 39.9005Z" fill="#F1634C"/>
<path d="M3.01904 4.10868V14.6749V40.9703C3.27941 40.9045 3.54325 40.8528 3.80938 40.8153C5.30317 40.661 6.80436 40.5859 8.3064 40.5904C9.88707 40.5904 11.5784 40.5284 13.2855 40.3734V27.9699C13.2855 23.8457 13.0168 19.6363 13.2855 15.5199C13.5723 13.0339 15.24 10.9086 17.6166 10.0003C19.5137 9.31057 21.6205 9.44589 23.4097 10.3724C17.4694 6.20188 10.3235 4.00677 3.01904 4.10868Z" fill="#F1634C"/>
</svg>
