<svg width="20" height="21" viewBox="0 0 20 21" fill="none" xmlns="http://www.w3.org/2000/svg">
<path d="M13.3333 14.4016L17.5 10.235M17.5 10.235L13.3333 6.06829M17.5 10.235H7.5M10 14.4016C10 14.6479 10 14.7711 9.99085 14.8778C9.89569 15.9866 9.07905 16.899 7.98753 17.116C7.88252 17.1369 7.76001 17.1505 7.51529 17.1777L6.66412 17.2723C5.3854 17.4144 4.74601 17.4854 4.23805 17.3229C3.56078 17.1061 3.00785 16.6112 2.71765 15.962C2.5 15.4751 2.5 14.8318 2.5 13.5452V6.9247C2.5 5.63809 2.5 4.99479 2.71765 4.50789C3.00785 3.85869 3.56078 3.36379 4.23805 3.14706C4.74601 2.98451 5.38538 3.05555 6.66412 3.19764L7.51529 3.29221C7.7601 3.31941 7.8825 3.33301 7.98753 3.35389C9.07905 3.57092 9.89569 4.48332 9.99085 5.59213C10 5.69882 10 5.82198 10 6.06829" stroke="#13599B" stroke-width="2" stroke-linecap="round" stroke-linejoin="round"/>
</svg>
