<svg width="17" height="17" viewBox="0 0 17 17" fill="none" xmlns="http://www.w3.org/2000/svg">
<path d="M6.62584 14.875C7.12531 15.3158 7.7814 15.5833 8.49996 15.5833C9.21853 15.5833 9.87462 15.3158 10.3741 14.875M12.75 5.66663C12.75 4.53946 12.3022 3.45845 11.5052 2.66142C10.7081 1.86439 9.62713 1.41663 8.49996 1.41663C7.37279 1.41663 6.29179 1.86439 5.49476 2.66142C4.69773 3.45845 4.24996 4.53946 4.24996 5.66663C4.24996 7.85551 3.6978 9.35418 3.08098 10.3455C2.56068 11.1816 2.30053 11.5997 2.31007 11.7163C2.32063 11.8455 2.34799 11.8947 2.45205 11.9719C2.54604 12.0416 2.96971 12.0416 3.81707 12.0416H13.1829C14.0302 12.0416 14.4539 12.0416 14.5479 11.9719C14.6519 11.8947 14.6793 11.8455 14.6899 11.7163C14.6994 11.5997 14.4392 11.1816 13.919 10.3455C13.3021 9.35418 12.75 7.85551 12.75 5.66663Z" stroke="#102048" stroke-width="1.5" stroke-linecap="round" stroke-linejoin="round"/>
</svg>
