<svg width="40" height="40" viewBox="0 0 40 40" fill="none" xmlns="http://www.w3.org/2000/svg">
<path d="M8.33397 36.6667H31.6673M4.16731 13.3334H35.834M16.6673 3.33337L13.334 13.3334L20.0006 30.8334L26.6673 13.3334L23.334 3.33337M20.9872 30.5815L35.8866 14.1922C36.1633 13.8878 36.3017 13.7356 36.3568 13.5622C36.4054 13.4095 36.4089 13.246 36.367 13.0913C36.3193 12.9158 36.1876 12.7578 35.9243 12.4417L28.7338 3.81313C28.5868 3.63678 28.5133 3.54861 28.4233 3.48522C28.3435 3.42905 28.2544 3.38734 28.1602 3.36199C28.0538 3.33337 27.939 3.33337 27.7095 3.33337H12.2918C12.0623 3.33337 11.9475 3.33337 11.8411 3.36199C11.7469 3.38734 11.6578 3.42905 11.578 3.48522C11.4879 3.54861 11.4145 3.63678 11.2675 3.81313L4.07701 12.4417C3.81363 12.7578 3.68194 12.9158 3.63431 13.0913C3.59234 13.246 3.59586 13.4095 3.64445 13.5622C3.6996 13.7356 3.83797 13.8878 4.11472 14.1922L19.0141 30.5815C19.3561 30.9577 19.5271 31.1458 19.7281 31.2154C19.9046 31.2765 20.0966 31.2765 20.2732 31.2154C20.4742 31.1458 20.6452 30.9577 20.9872 30.5815Z" stroke="white" stroke-width="2.5" stroke-linecap="round" stroke-linejoin="round"/>
</svg>
