<svg width="17" height="17" viewBox="0 0 17 17" fill="none" xmlns="http://www.w3.org/2000/svg">
<path d="M8.00551 15.3105C8.16233 15.402 8.24074 15.4478 8.3514 15.4715C8.43727 15.4899 8.56257 15.4899 8.64844 15.4715C8.7591 15.4478 8.83751 15.402 8.99433 15.3105C10.3742 14.5055 14.1666 11.9768 14.1666 8.50001V5.11248C14.1666 4.54616 14.1666 4.263 14.074 4.01959C13.9921 3.80457 13.8592 3.61271 13.6866 3.46059C13.4912 3.2884 13.2261 3.18898 12.6958 2.99013L8.89786 1.5659C8.7506 1.51068 8.67697 1.48307 8.60122 1.47213C8.53404 1.46242 8.4658 1.46242 8.39862 1.47213C8.32287 1.48307 8.24924 1.51068 8.10198 1.5659L4.30404 2.99013C3.77378 3.18898 3.50864 3.2884 3.31326 3.46059C3.14066 3.61271 3.0077 3.80457 2.92587 4.01959C2.83325 4.263 2.83325 4.54616 2.83325 5.11248V8.50001C2.83325 11.9768 6.62564 14.5055 8.00551 15.3105Z" stroke="#102048" stroke-width="1.5" stroke-linecap="round" stroke-linejoin="round"/>
</svg>
