<svg width="27" height="27" viewBox="0 0 27 27" fill="none" xmlns="http://www.w3.org/2000/svg">
<path d="M12.0859 6.25019C12.0859 6.80248 12.5337 7.25019 13.0859 7.25019C13.6382 7.25019 14.0859 6.80248 14.0859 6.25019H12.0859ZM14.0859 1.4502C14.0859 0.897911 13.6382 0.450195 13.0859 0.450195C12.5337 0.450195 12.0859 0.897911 12.0859 1.4502H14.0859ZM12.0859 25.4502C12.0859 26.0025 12.5337 26.4502 13.0859 26.4502C13.6382 26.4502 14.0859 26.0025 14.0859 25.4502H12.0859ZM14.0859 20.6502C14.0859 20.0979 13.6382 19.6502 13.0859 19.6502C12.5337 19.6502 12.0859 20.0979 12.0859 20.6502H14.0859ZM20.2859 12.4502C19.7337 12.4502 19.2859 12.8979 19.2859 13.4502C19.2859 14.0025 19.7337 14.4502 20.2859 14.4502V12.4502ZM25.0859 14.4502C25.6382 14.4502 26.0859 14.0025 26.0859 13.4502C26.0859 12.8979 25.6382 12.4502 25.0859 12.4502V14.4502ZM1.08594 12.4502C0.533653 12.4502 0.0859375 12.8979 0.0859375 13.4502C0.0859375 14.0025 0.533653 14.4502 1.08594 14.4502V12.4502ZM5.88594 14.4502C6.43822 14.4502 6.88594 14.0025 6.88594 13.4502C6.88594 12.8979 6.43822 12.4502 5.88594 12.4502V14.4502ZM21.6859 13.4501C21.6859 18.1998 17.8356 22.0501 13.0859 22.0501V24.0501C18.9402 24.0501 23.6859 19.3043 23.6859 13.4501H21.6859ZM13.0859 22.0501C8.33629 22.0501 4.48594 18.1998 4.48594 13.4501H2.48594C2.48594 19.3043 7.23172 24.0501 13.0859 24.0501V22.0501ZM4.48594 13.4501C4.48594 8.70048 8.33629 4.85013 13.0859 4.85013V2.85013C7.23172 2.85013 2.48594 7.59591 2.48594 13.4501H4.48594ZM13.0859 4.85013C17.8356 4.85013 21.6859 8.70048 21.6859 13.4501H23.6859C23.6859 7.59591 18.9402 2.85013 13.0859 2.85013V4.85013ZM14.0859 6.25019V1.4502H12.0859V6.25019H14.0859ZM14.0859 25.4502V20.6502H12.0859V25.4502H14.0859ZM20.2859 14.4502H25.0859V12.4502H20.2859V14.4502ZM1.08594 14.4502H5.88594V12.4502H1.08594V14.4502ZM15.6859 13.4502C15.6859 14.8861 14.5219 16.0502 13.0859 16.0502V18.0502C15.6264 18.0502 17.6859 15.9907 17.6859 13.4502H15.6859ZM13.0859 16.0502C11.65 16.0502 10.4859 14.8861 10.4859 13.4502H8.48594C8.48594 15.9907 10.5454 18.0502 13.0859 18.0502V16.0502ZM10.4859 13.4502C10.4859 12.0143 11.65 10.8502 13.0859 10.8502V8.8502C10.5454 8.8502 8.48594 10.9097 8.48594 13.4502H10.4859ZM13.0859 10.8502C14.5219 10.8502 15.6859 12.0143 15.6859 13.4502H17.6859C17.6859 10.9097 15.6264 8.8502 13.0859 8.8502V10.8502Z" fill="#C9CACB"/>
</svg>
