<svg width="21" height="21" viewBox="0 0 21 21" fill="none" xmlns="http://www.w3.org/2000/svg">
<path fill-rule="evenodd" clip-rule="evenodd" d="M12.0407 3.99631C11.6845 2.53378 9.60314 2.53378 9.24688 3.99631C9.19369 4.21607 9.08937 4.42018 8.94239 4.59201C8.79542 4.76385 8.60995 4.89855 8.40108 4.98517C8.19221 5.07178 7.96585 5.10786 7.7404 5.09047C7.51495 5.07308 7.2968 5.0027 7.10369 4.88507C5.8174 4.10131 4.34548 5.57321 5.12925 6.85948C5.63552 7.69011 5.18644 8.77388 4.24141 9.00357C2.77793 9.35889 2.77793 11.4411 4.24141 11.7955C4.46124 11.8487 4.66539 11.9532 4.83722 12.1002C5.00906 12.2473 5.14373 12.4329 5.23026 12.6419C5.3168 12.8509 5.35275 13.0773 5.3352 13.3028C5.31765 13.5283 5.24708 13.7465 5.12925 13.9396C4.34548 15.2259 5.8174 16.6978 7.10369 15.914C7.29676 15.7962 7.51494 15.7256 7.74044 15.708C7.96595 15.6905 8.19242 15.7265 8.4014 15.813C8.61038 15.8995 8.79597 16.0342 8.94305 16.206C9.09014 16.3779 9.19456 16.582 9.24782 16.8018C9.60314 18.2653 11.6854 18.2653 12.0398 16.8018C12.0932 16.5821 12.1977 16.3781 12.3449 16.2064C12.492 16.0347 12.6775 15.9001 12.8865 15.8136C13.0954 15.7271 13.3217 15.6911 13.5472 15.7085C13.7726 15.726 13.9908 15.7964 14.1839 15.914C15.4702 16.6978 16.9421 15.2259 16.1583 13.9396C16.0407 13.7465 15.9703 13.5283 15.9529 13.3029C15.9354 13.0774 15.9714 12.8511 16.0579 12.6421C16.1444 12.4332 16.279 12.2477 16.4507 12.1006C16.6225 11.9534 16.8265 11.8489 17.0462 11.7955C18.5097 11.4402 18.5097 9.35795 17.0462 9.00357C16.8264 8.95032 16.6222 8.84589 16.4504 8.69881C16.2785 8.55173 16.1439 8.36614 16.0573 8.15716C15.9708 7.94819 15.9348 7.72172 15.9524 7.49622C15.97 7.27072 16.0405 7.05255 16.1583 6.85948C16.9421 5.57321 15.4702 4.10131 14.1839 4.88507C13.9908 5.0029 13.7727 5.07346 13.5472 5.09101C13.3216 5.10857 13.0952 5.07261 12.8862 4.98608C12.6772 4.89954 12.4916 4.76488 12.3445 4.59304C12.1975 4.42121 12.093 4.21707 12.0398 3.99724L12.0407 3.99631Z" stroke="#12CBC4" stroke-width="1.8"/>
<path d="M12.3105 10.3994C12.3105 11.3199 11.5643 12.0661 10.6438 12.0661C9.72332 12.0661 8.97713 11.3199 8.97713 10.3994C8.97713 9.47894 9.72332 8.73275 10.6438 8.73275C11.5643 8.73275 12.3105 9.47894 12.3105 10.3994Z" stroke="#12CBC4" stroke-width="1.8"/>
</svg>
