<svg width="18" height="18" viewBox="0 0 18 18" fill="none" xmlns="http://www.w3.org/2000/svg">
<path d="M16.5717 9.22072C16.5717 8.8065 16.2359 8.47072 15.8217 8.47072C15.4074 8.47072 15.0717 8.8065 15.0717 9.22072H16.5717ZM8.69598 2.91189C9.1102 2.91189 9.44598 2.57611 9.44598 2.16189C9.44598 1.74768 9.1102 1.41189 8.69598 1.41189V2.91189ZM13.0088 9.22072C13.0088 8.8065 12.673 8.47072 12.2588 8.47072C11.8446 8.47072 11.5088 8.8065 11.5088 9.22072H13.0088ZM8.69598 6.44131C9.1102 6.44131 9.44598 6.10552 9.44598 5.69131C9.44598 5.27709 9.1102 4.94131 8.69598 4.94131V6.44131ZM12.3729 6.49168C12.6672 6.20017 12.6694 5.7253 12.3779 5.43103C12.0864 5.13676 11.6116 5.13452 11.3173 5.42603L12.3729 6.49168ZM8.16816 8.54562C7.87389 8.83713 7.87165 9.312 8.16316 9.60627C8.45467 9.90054 8.92954 9.90278 9.22381 9.61127L8.16816 8.54562ZM16.5703 3.77521L17.0981 4.30804C17.3005 4.10754 17.3719 3.80968 17.2822 3.53925C17.1926 3.26882 16.9575 3.07253 16.6754 3.03261L16.5703 3.77521ZM13.7361 6.58284L13.5009 7.29502C13.7688 7.38346 14.0635 7.31416 14.2639 7.11566L13.7361 6.58284ZM11.2168 4.08717L10.689 3.55435C10.4857 3.75571 10.4147 4.05518 10.506 4.32636L11.2168 4.08717ZM14.051 1.27954L14.7933 1.17249C14.7529 0.892128 14.558 0.658462 14.2894 0.568431C14.0208 0.4784 13.7244 0.547366 13.5232 0.746718L14.051 1.27954ZM11.8466 5.95892L11.1358 6.19811C11.2111 6.42185 11.3873 6.59708 11.6115 6.6711L11.8466 5.95892ZM14.3659 3.46325L13.6236 3.5703C13.6712 3.90022 13.9308 4.15915 14.2608 4.20585L14.3659 3.46325ZM15.0717 9.22072C15.0717 12.6983 12.2238 15.5295 8.69598 15.5295V17.0295C13.0389 17.0295 16.5717 13.5401 16.5717 9.22072H15.0717ZM8.69598 15.5295C5.16812 15.5295 2.32031 12.6983 2.32031 9.22072H0.820312C0.820312 13.5401 4.35305 17.0295 8.69598 17.0295V15.5295ZM2.32031 9.22072C2.32031 5.7431 5.16812 2.91189 8.69598 2.91189V1.41189C4.35305 1.41189 0.820312 4.90137 0.820312 9.22072H2.32031ZM11.5088 9.22072C11.5088 10.7491 10.2561 12.0001 8.69598 12.0001V13.5001C11.0712 13.5001 13.0088 11.5908 13.0088 9.22072H11.5088ZM8.69598 12.0001C7.13582 12.0001 5.88315 10.7491 5.88315 9.22072H4.38315C4.38315 11.5908 6.32075 13.5001 8.69598 13.5001V12.0001ZM5.88315 9.22072C5.88315 7.69234 7.13582 6.44131 8.69598 6.44131V4.94131C6.32075 4.94131 4.38315 6.85061 4.38315 9.22072H5.88315ZM11.3173 5.42603L8.16816 8.54562L9.22381 9.61127L12.3729 6.49168L11.3173 5.42603ZM16.0425 3.24239L13.2083 6.05002L14.2639 7.11566L17.0981 4.30804L16.0425 3.24239ZM11.7446 4.61999L14.5788 1.81236L13.5232 0.746718L10.689 3.55435L11.7446 4.61999ZM13.9713 5.87066L12.0818 5.24675L11.6115 6.6711L13.5009 7.29502L13.9713 5.87066ZM12.5575 5.71974L11.9276 3.84798L10.506 4.32636L11.1358 6.19811L12.5575 5.71974ZM13.3087 1.38659L13.6236 3.5703L15.1082 3.3562L14.7933 1.17249L13.3087 1.38659ZM14.2608 4.20585L16.4652 4.51781L16.6754 3.03261L14.471 2.72065L14.2608 4.20585Z" fill="#7282A0"/>
</svg>
